<svg xmlns="http://www.w3.org/2000/svg" width="220" height="16" viewBox="0 0 220 16"><path d="M30.433.455l-7.53 15.092h2.014l2.06-4.13h8.925l2.06 4.13h2.012L32.444.454h-2.01zm-2.557 9.16L31.44 2.47 35 9.614h-7.126zM97.757 11.418h8.925l2.06 4.13h2.012L103.224.453h-2.012l-7.53 15.093h2.014l2.06-4.13zm4.463-8.946l3.562 7.142h-7.125l3.563-7.142zM60.285 8.302c0 3.167-2.57 5.742-5.727 5.742-3.16 0-5.73-2.575-5.73-5.742V.455h-1.8v7.847c0 4.16 3.378 7.547 7.53 7.547 4.15 0 7.528-3.388 7.528-7.548V.455h-1.8v7.847zM1.8.455H0v15.092h15.057v-1.804H1.8M74.208 11.417h5l4.12 4.13 2.544-.002-4.333-4.342c2.283-.657 3.96-2.77 3.96-5.268 0-3.022-2.453-5.48-5.468-5.48h-7.625v15.092h1.8v-4.13zm0-9.16h5.825c2.022 0 3.667 1.65 3.667 3.678 0 2.027-1.646 3.676-3.667 3.676h-5.825V2.26z"/><g><path d="M212.718 8l7.28-7.545h-2.503l-6.03 6.247-6.03-6.247h-2.503L210.212 8l-7.28 7.547h2.504l6.03-6.25 6.028 6.25H220M169.532 12.466L157.548.456h-1.272v15.09h1.8V3.535l11.983 12.013h1.272V.455h-1.8M146.183.455h-2.545l-9.474 9.496V.456h-1.8v15.092h1.8V12.5l3.846-3.853 6.883 6.898h2.545l-8.155-8.173M187.837 0c-4.402 0-7.982 3.59-7.982 8s3.58 8 7.982 8c4.4 0 7.98-3.59 7.98-8s-3.58-8-7.98-8zm0 14.196c-3.41 0-6.182-2.78-6.182-6.196 0-3.415 2.772-6.196 6.182-6.196 3.408 0 6.18 2.78 6.18 6.196 0 3.417-2.772 6.196-6.18 6.196z"/></g></svg>