<?xml version="1.0" encoding="utf-8"?>
<!-- Generator: Adobe Illustrator 16.0.4, SVG Export Plug-In . SVG Version: 6.00 Build 0)  -->
<!DOCTYPE svg PUBLIC "-//W3C//DTD SVG 1.1//EN" "http://www.w3.org/Graphics/SVG/1.1/DTD/svg11.dtd">
<svg version="1.1" xmlns="http://www.w3.org/2000/svg" xmlns:xlink="http://www.w3.org/1999/xlink" x="0px" y="0px" width="220px"
	 height="16px" viewBox="0 0 220 16" enable-background="new 0 0 220 16" xml:space="preserve">
<g id="BG">
</g>
<g id="MIX_COL">
</g>
<g id="HEADER_4">
</g>
<g id="LOGO_2">
</g>
<g id="Layer_13">
</g>
<g id="HEADER_3">
</g>
<g id="HEADER_2">
</g>
<g id="Layer_11">
</g>
<g id="HEADER_1">
</g>
<g id="_x33__COL">
	<g>
		<g>
			<path d="M30.433,0.455l-7.529,15.092h2.013l2.06-4.129h8.925l2.059,4.129h2.013L32.445,0.454L30.433,0.455z
				 M27.876,9.614l3.563-7.142l3.563,7.142H27.876z"/>
			<path d="M97.757,11.418h8.925l2.059,4.129h2.013l-7.529-15.093h-2.013l-7.529,15.093h2.013L97.757,11.418z
				 M102.22,2.472l3.562,7.142h-7.125L102.22,2.472z"/>
			<path d="M60.285,8.302c0,3.167-2.569,5.742-5.727,5.742c-3.159,0-5.729-2.575-5.729-5.742V0.455h-1.8v7.847
				c0,4.16,3.377,7.547,7.53,7.547c4.15,0,7.527-3.387,7.527-7.547V0.455h-1.8V8.302z"/>
			<polygon points="1.799,0.455 0,0.455 0,15.547 15.057,15.547 15.057,13.743 1.799,13.743 			"/>
			<path d="M74.208,11.417h4.999l4.12,4.13l2.545-0.002l-4.333-4.342c2.284-0.657,3.96-2.769,3.96-5.268
				c0-3.022-2.452-5.48-5.467-5.48h-5.825h-1.8v15.092h1.8V11.417z M74.208,2.258h5.825c2.022,0,3.667,1.65,3.667,3.677
				c0,2.027-1.646,3.676-3.667,3.676h-5.825V2.258z"/>
		</g>
		<g>
			<polygon points="212.718,8 219.999,0.455 217.495,0.455 211.465,6.702 205.436,0.455 202.932,0.455 210.213,8 
				202.932,15.547 205.436,15.547 211.466,9.298 217.494,15.547 220,15.547 			"/>
			<polygon points="169.532,12.466 157.548,0.455 156.276,0.455 156.276,15.547 158.075,15.547 158.075,3.534 
				170.059,15.547 171.332,15.547 171.332,0.455 169.532,0.455 			"/>
			<polygon points="146.183,0.455 143.638,0.455 134.164,9.951 134.164,0.455 132.364,0.455 132.364,15.547 
				134.164,15.547 134.164,12.501 138.01,8.647 144.893,15.545 147.438,15.545 139.283,7.372 			"/>
			<path d="M187.837,0c-4.402,0-7.982,3.589-7.982,8c0,4.41,3.58,8,7.982,8c4.4,0,7.98-3.59,7.98-8
				C195.817,3.589,192.237,0,187.837,0z M187.837,14.196c-3.409,0-6.182-2.779-6.182-6.196c0-3.415,2.772-6.196,6.182-6.196
				c3.408,0,6.18,2.781,6.18,6.196C194.017,11.417,191.245,14.196,187.837,14.196z"/>
		</g>
	</g>
</g>
<g id="_x36__COL">
</g>
<g id="GUIDES">
</g>
</svg>
